<svg width="164" height="31" viewBox="0 0 164 31" fill="none" xmlns="http://www.w3.org/2000/svg">
<path d="M4.52273 24L6.65909 17.8409H15.75L17.875 24H21.6023L13.2273 0.727272H9.17045L0.795455 24H4.52273ZM7.68182 14.8864L11.1136 4.95454H11.2955L14.7273 14.8864H7.68182ZM37.6449 10.8068C36.9403 8.09091 34.8153 6.31818 31.0426 6.31818C27.0994 6.31818 24.304 8.39773 24.304 11.4886C24.304 13.9659 25.804 15.6136 29.0767 16.3409L32.0312 16.9886C33.7131 17.3636 34.4972 18.1136 34.4972 19.2045C34.4972 20.5568 33.054 21.6136 30.8267 21.6136C28.7926 21.6136 27.4858 20.7386 27.0767 19.0227L23.7926 19.5227C24.3608 22.6136 26.929 24.3523 30.8494 24.3523C35.0653 24.3523 37.9858 22.1136 37.9858 18.9545C37.9858 16.4886 36.4176 14.9659 33.2131 14.2273L30.4403 13.5909C28.5199 13.1364 27.6903 12.4886 27.7017 11.3068C27.6903 9.96591 29.1449 9.01136 31.0767 9.01136C33.1903 9.01136 34.1676 10.1818 34.5653 11.3523L37.6449 10.8068ZM49.8693 6.54545H46.2898V2.36364H42.892V6.54545H40.3352V9.27273H42.892V19.5795C42.8807 22.75 45.3011 24.2841 47.983 24.2273C49.0625 24.2159 49.7898 24.0114 50.1875 23.8636L49.5739 21.0568C49.3466 21.1023 48.9261 21.2045 48.3807 21.2045C47.2784 21.2045 46.2898 20.8409 46.2898 18.875V9.27273H49.8693V6.54545ZM58.7074 24.3864C61.5938 24.3864 63.2188 22.9205 63.8665 21.6136H64.0028V24H67.321V12.4091C67.321 7.32954 63.321 6.31818 60.5483 6.31818C57.3892 6.31818 54.4801 7.59091 53.3438 10.7727L56.5369 11.5C57.0369 10.2614 58.3097 9.06818 60.5938 9.06818C62.7869 9.06818 63.9119 10.2159 63.9119 12.1932V12.2727C63.9119 13.5114 62.6392 13.4886 59.5028 13.8523C56.196 14.2386 52.8097 15.1023 52.8097 19.0682C52.8097 22.5 55.3892 24.3864 58.7074 24.3864ZM59.446 21.6591C57.5256 21.6591 56.1392 20.7955 56.1392 19.1136C56.1392 17.2955 57.7528 16.6477 59.7188 16.3864C60.821 16.2386 63.4347 15.9432 63.9233 15.4545V17.7045C63.9233 19.7727 62.2756 21.6591 59.446 21.6591ZM71.8466 24H75.2443V13.2386C75.2443 10.8864 76.892 9.25 78.8239 9.25C80.7102 9.25 82.017 10.5 82.017 12.3977V24H85.4034V12.875C85.4034 10.7727 86.6875 9.25 88.9034 9.25C90.6989 9.25 92.1761 10.25 92.1761 12.6136V24H95.5739V12.2955C95.5739 8.30682 93.3466 6.31818 90.1875 6.31818C87.6761 6.31818 85.7898 7.52273 84.9489 9.38636H84.767C84.0057 7.47727 82.4034 6.31818 80.0739 6.31818C77.767 6.31818 76.0511 7.46591 75.3239 9.38636H75.108V6.54545H71.8466V24ZM102.366 24.2159C103.605 24.2159 104.639 23.2045 104.639 21.9432C104.639 20.7045 103.605 19.6818 102.366 19.6818C101.116 19.6818 100.094 20.7045 100.094 21.9432C100.094 23.2045 101.116 24.2159 102.366 24.2159ZM114.27 24.3864C117.156 24.3864 118.781 22.9205 119.429 21.6136H119.565V24H122.884V12.4091C122.884 7.32954 118.884 6.31818 116.111 6.31818C112.952 6.31818 110.043 7.59091 108.906 10.7727L112.099 11.5C112.599 10.2614 113.872 9.06818 116.156 9.06818C118.349 9.06818 119.474 10.2159 119.474 12.1932V12.2727C119.474 13.5114 118.202 13.4886 115.065 13.8523C111.759 14.2386 108.372 15.1023 108.372 19.0682C108.372 22.5 110.952 24.3864 114.27 24.3864ZM115.009 21.6591C113.088 21.6591 111.702 20.7955 111.702 19.1136C111.702 17.2955 113.315 16.6477 115.281 16.3864C116.384 16.2386 118.997 15.9432 119.486 15.4545V17.7045C119.486 19.7727 117.838 21.6591 115.009 21.6591ZM127.409 30.5455H130.807V21.2841H131.011C131.625 22.3977 132.875 24.3409 136.057 24.3409C140.284 24.3409 143.352 20.9545 143.352 15.3068C143.352 9.64773 140.239 6.31818 136.023 6.31818C132.784 6.31818 131.614 8.29545 131.011 9.375H130.727V6.54545H127.409V30.5455ZM130.739 15.2727C130.739 11.625 132.33 9.20455 135.295 9.20455C138.375 9.20455 139.92 11.8068 139.92 15.2727C139.92 18.7727 138.33 21.4432 135.295 21.4432C132.375 21.4432 130.739 18.9432 130.739 15.2727ZM147.159 30.5455H150.557V21.2841H150.761C151.375 22.3977 152.625 24.3409 155.807 24.3409C160.034 24.3409 163.102 20.9545 163.102 15.3068C163.102 9.64773 159.989 6.31818 155.773 6.31818C152.534 6.31818 151.364 8.29545 150.761 9.375H150.477V6.54545H147.159V30.5455ZM150.489 15.2727C150.489 11.625 152.08 9.20455 155.045 9.20455C158.125 9.20455 159.67 11.8068 159.67 15.2727C159.67 18.7727 158.08 21.4432 155.045 21.4432C152.125 21.4432 150.489 18.9432 150.489 15.2727Z" fill="url(#paint0_linear)"/>
<defs>
<linearGradient id="paint0_linear" x1="-14" y1="24" x2="163" y2="4.99999" gradientUnits="userSpaceOnUse">
<stop stop-color="#F6BCF4"/>
<stop offset="1" stop-color="#DA9BEA"/>
</linearGradient>
</defs>
</svg>
